# xmcd
#
# Track frame offsets:
#	150
#	17707
#	33677
#	47917
#	67594
#	87326
#	105159
#	123061
#	140786
#	159932
#
# Disc length: 2425 seconds
#
# Revision: 1
# Processed by: cddbd v1.5.2PL0 Copyright (c) Steve Scherf et al.
# Submitted via: EasyCDDAExtractor 16.1.0.1
#
DISCID=7609770a
DTITLE=秀蘭瑪雅 - 愛情歌
DYEAR=2000
DGENRE=R&B
TTITLE0=秋風夜雨
TTITLE1=雨夜花
TTITLE2=放浪人生
TTITLE3=綠島之夜
TTITLE4=秋怨
TTITLE5=悲戀的公路
TTITLE6=咱二人的約會
TTITLE7=岸
TTITLE8=最愛的人
TTITLE9=愛情歌
EXTD=YEAR: 2000 ID3G: 14
EXTT0=
EXTT1=
EXTT2=
EXTT3=
EXTT4=
EXTT5=
EXTT6=
EXTT7=
EXTT8=
EXTT9=
PLAYORDER=
